<?xml version="1.0" encoding="UTF-8" standalone="no"?>
<svg
   xmlns:dc="http://purl.org/dc/elements/1.1/"
   xmlns:cc="http://creativecommons.org/ns#"
   xmlns:rdf="http://www.w3.org/1999/02/22-rdf-syntax-ns#"
   xmlns:svg="http://www.w3.org/2000/svg"
   xmlns="http://www.w3.org/2000/svg"
   xmlns:sodipodi="http://sodipodi.sourceforge.net/DTD/sodipodi-0.dtd"
   xmlns:inkscape="http://www.inkscape.org/namespaces/inkscape"
   sodipodi:docname="guerrillalogo-white.svg"
   inkscape:version="1.0 (4035a4fb49, 2020-05-01)"
   inkscape:export-ydpi="150"
   inkscape:export-xdpi="150"
   inkscape:export-filename="C:\Users\Simone\Pictures\Guerrilla\guerrilladigital-logo-white.png"
   id="svg8"
   version="1.1"
   viewBox="0 0 66.01774 21.646751"
   height="21.646751mm"
   width="66.017738mm">
  <defs
     id="defs2" />
  <sodipodi:namedview
     inkscape:window-maximized="1"
     inkscape:window-y="-6"
     inkscape:window-x="-6"
     inkscape:window-height="658"
     inkscape:window-width="1280"
     fit-margin-bottom="0"
     fit-margin-right="0"
     fit-margin-left="0"
     fit-margin-top="0"
     inkscape:guide-bbox="true"
     showguides="true"
     showgrid="false"
     inkscape:document-rotation="0"
     inkscape:current-layer="layer1"
     inkscape:document-units="mm"
     inkscape:cy="78.845459"
     inkscape:cx="200.87479"
     inkscape:zoom="1.3595617"
     inkscape:pageshadow="2"
     inkscape:pageopacity="0.0"
     borderopacity="1.0"
     bordercolor="#666666"
     pagecolor="#ffffff"
     id="base" />
  <metadata
     id="metadata5">
    <rdf:RDF>
      <cc:Work
         rdf:about="">
        <dc:format>image/svg+xml</dc:format>
        <dc:type
           rdf:resource="http://purl.org/dc/dcmitype/StillImage" />
        <dc:title></dc:title>
      </cc:Work>
    </rdf:RDF>
  </metadata>
  <g
     transform="translate(-15.835523,-53.848903)"
     id="layer1"
     inkscape:groupmode="layer"
     inkscape:label="Livello 1">
    <g
       style="font-size:10.5833px;line-height:1.25;font-family:Ubuntu;-inkscape-font-specification:Ubuntu;letter-spacing:0px;word-spacing:0px;stroke-width:0.264583;fill:#ffffff"
       id="text835"
       aria-label="GUERRILLA">
      <path
         id="path845"
         style="font-style:normal;font-variant:normal;font-weight:bold;font-stretch:normal;font-family:Ubuntu;-inkscape-font-specification:'Ubuntu Bold';stroke-width:0.264583;fill:#ffffff"
         d="m 24.084613,58.947679 q -1.15358,0 -1.672162,0.645581 -0.507998,0.634998 -0.507998,1.746245 0,0.539748 0.126999,0.984246 0.127,0.433916 0.380999,0.751415 0.253999,0.317499 0.634998,0.497415 0.380999,0.169333 0.888997,0.169333 0.275166,0 0.465666,-0.01058 0.201082,-0.01058 0.349248,-0.04233 v -2.550575 h 1.650995 v 3.630072 q -0.296332,0.116416 -0.952497,0.243415 -0.656164,0.137583 -1.619245,0.137583 -0.825497,0 -1.502828,-0.253999 -0.666748,-0.253999 -1.142997,-0.740831 -0.476248,-0.486832 -0.740831,-1.195913 -0.253999,-0.709081 -0.253999,-1.619244 0,-0.920748 0.285749,-1.629829 0.285749,-0.709081 0.783165,-1.195912 0.497415,-0.497416 1.164163,-0.751415 0.677331,-0.253999 1.439328,-0.253999 0.518582,0 0.931331,0.07408 0.423332,0.0635 0.719664,0.15875 0.306916,0.08467 0.497415,0.179916 0.201083,0.09525 0.285749,0.148166 l -0.476248,1.322912 q -0.338666,-0.17992 -0.783164,-0.306919 -0.433916,-0.137583 -0.952497,-0.137583 z" />
      <path
         id="path847"
         style="font-style:normal;font-variant:normal;font-weight:bold;font-stretch:normal;font-family:Ubuntu;-inkscape-font-specification:'Ubuntu Bold';stroke-width:0.264583;fill:#ffffff"
         d="m 30.796243,65.160076 q -0.77258,0 -1.333495,-0.211666 -0.560915,-0.22225 -0.931331,-0.603248 -0.359832,-0.391582 -0.539748,-0.920747 -0.169333,-0.539749 -0.169333,-1.18533 v -4.561402 h 1.650995 v 4.423819 q 0,0.444499 0.09525,0.761998 0.105833,0.306915 0.275166,0.507998 0.179916,0.190499 0.423331,0.275166 0.254,0.08467 0.550332,0.08467 0.603248,0 0.973664,-0.370415 0.380998,-0.370416 0.380998,-1.259413 v -4.423819 h 1.650995 v 4.561402 q 0,0.645581 -0.179916,1.18533 -0.179916,0.539748 -0.550332,0.93133 -0.370415,0.380999 -0.941913,0.592665 -0.571498,0.211666 -1.354663,0.211666 z" />
      <path
         id="path849"
         style="font-style:normal;font-variant:normal;font-weight:bold;font-stretch:normal;font-family:Ubuntu;-inkscape-font-specification:'Ubuntu Bold';stroke-width:0.264583;fill:#ffffff"
         d="m 35.410893,65.011909 v -7.334226 h 4.952984 v 1.386412 h -3.301989 v 1.439329 h 2.931574 v 1.354662 h -2.931574 v 1.767411 h 3.545405 v 1.386412 z" />
      <path
         id="path851"
         style="font-style:normal;font-variant:normal;font-weight:bold;font-stretch:normal;font-family:Ubuntu;-inkscape-font-specification:'Ubuntu Bold';stroke-width:0.264583;fill:#ffffff"
         d="m 43.96716,57.593016 q 1.650994,0 2.529408,0.592665 0.878414,0.582082 0.878414,1.820328 0,0.772581 -0.359832,1.259412 -0.349249,0.476249 -1.015997,0.751415 0.22225,0.275165 0.465665,0.634998 0.243416,0.349249 0.476249,0.740831 0.243416,0.380998 0.465665,0.80433 0.222249,0.412749 0.412749,0.814914 h -1.852078 q -0.201082,-0.359832 -0.412748,-0.730247 -0.201083,-0.370416 -0.423332,-0.719665 -0.211666,-0.349248 -0.423332,-0.656164 -0.211666,-0.317499 -0.423332,-0.571498 h -0.814914 v 2.677574 H 41.81875 v -7.228393 q 0.539748,-0.105833 1.111246,-0.148166 0.582082,-0.04233 1.037164,-0.04233 z m 0.09525,1.407579 q -0.179916,0 -0.328082,0.01058 -0.137583,0.01058 -0.264582,0.02117 v 1.989661 h 0.465665 q 0.93133,0 1.333496,-0.232833 0.402165,-0.232833 0.402165,-0.793748 0,-0.539748 -0.412749,-0.761997 -0.402165,-0.232833 -1.195913,-0.232833 z" />
      <path
         id="path853"
         style="font-style:normal;font-variant:normal;font-weight:bold;font-stretch:normal;font-family:Ubuntu;-inkscape-font-specification:'Ubuntu Bold';stroke-width:0.264583;fill:#ffffff"
         d="m 51.036475,57.593016 q 1.650994,0 2.529408,0.592665 0.878414,0.582082 0.878414,1.820328 0,0.772581 -0.359832,1.259412 -0.349249,0.476249 -1.015997,0.751415 0.22225,0.275165 0.465665,0.634998 0.243416,0.349249 0.476249,0.740831 0.243416,0.380998 0.465665,0.80433 0.222249,0.412749 0.412749,0.814914 H 53.036718 Q 52.835636,64.652077 52.62397,64.281662 52.422887,63.911246 52.200638,63.561997 51.988972,63.212749 51.777306,62.905833 51.56564,62.588334 51.353974,62.334335 H 50.53906 v 2.677574 h -1.650995 v -7.228393 q 0.539748,-0.105833 1.111246,-0.148166 0.582082,-0.04233 1.037164,-0.04233 z m 0.09525,1.407579 q -0.179916,0 -0.328082,0.01058 -0.137583,0.01058 -0.264582,0.02117 v 1.989661 h 0.465665 q 0.93133,0 1.333496,-0.232833 0.402165,-0.232833 0.402165,-0.793748 0,-0.539748 -0.412749,-0.761997 -0.402165,-0.232833 -1.195913,-0.232833 z" />
      <path
         id="path855"
         style="font-style:normal;font-variant:normal;font-weight:bold;font-stretch:normal;font-family:Ubuntu;-inkscape-font-specification:'Ubuntu Bold';stroke-width:0.264583;fill:#ffffff"
         d="m 55.957378,57.677683 h 1.650995 v 7.334226 h -1.650995 z" />
      <path
         id="path857"
         style="font-style:normal;font-variant:normal;font-weight:bold;font-stretch:normal;font-family:Ubuntu;-inkscape-font-specification:'Ubuntu Bold';stroke-width:0.264583;fill:#ffffff"
         d="m 64.206067,63.593747 v 1.418162 h -4.900068 v -7.334226 h 1.650995 v 5.916064 z" />
      <path
         id="path859"
         style="font-style:normal;font-variant:normal;font-weight:bold;font-stretch:normal;font-family:Ubuntu;-inkscape-font-specification:'Ubuntu Bold';stroke-width:0.264583;fill:#ffffff"
         d="m 70.159173,63.593747 v 1.418162 H 65.259105 V 57.677683 H 66.9101 v 5.916064 z" />
      <path
         id="path861"
         style="font-style:normal;font-variant:normal;font-weight:bold;font-stretch:normal;font-family:Ubuntu;-inkscape-font-specification:'Ubuntu Bold';stroke-width:0.264583;fill:#ffffff"
         d="M 76.453589,65.011909 Q 76.337173,64.630911 76.189006,64.228745 76.051423,63.82658 75.913841,63.424415 H 73.05635 q -0.137583,0.402165 -0.285749,0.80433 -0.137583,0.402166 -0.254,0.783164 h -1.714494 q 0.412748,-1.185329 0.783164,-2.190743 0.370415,-1.005413 0.719664,-1.89441 0.359833,-0.888997 0.698498,-1.682745 0.349249,-0.804331 0.719664,-1.566328 h 1.576912 q 0.359832,0.761997 0.709081,1.566328 0.349249,0.793748 0.698498,1.682745 0.359832,0.888997 0.730248,1.89441 0.370415,1.005414 0.783164,2.190743 z m -1.979077,-5.672648 q -0.05292,0.158749 -0.15875,0.433915 -0.105833,0.275166 -0.243416,0.634998 -0.137583,0.359832 -0.306915,0.793748 -0.15875,0.433915 -0.328083,0.910163 h 2.08491 Q 75.352926,61.635837 75.194176,61.201922 75.035427,60.768006 74.88726,60.408174 74.749678,60.048342 74.643845,59.773176 74.538012,59.49801 74.474512,59.339261 Z" />
    </g>
    <g
       transform="translate(0,-1.5875)"
       style="font-size:7.05556px;line-height:1.25;font-family:Ubuntu;-inkscape-font-specification:Ubuntu;letter-spacing:1.80446px;word-spacing:0px;stroke-width:0.264583;fill:#ffffff"
       id="text839"
       aria-label="DIGITAL LAB">
      <path
         id="path864"
         style="font-size:7.05556px;stroke-width:0.264583;fill:#ffffff"
         d="m 24.314423,70.658723 q 0,0.635 -0.197555,1.107723 -0.197556,0.465667 -0.55739,0.776111 -0.359833,0.30339 -0.860778,0.458612 -0.500945,0.148167 -1.100667,0.148167 -0.296334,0 -0.656168,-0.02822 -0.352778,-0.02117 -0.642056,-0.09172 V 68.28806 q 0.289278,-0.07056 0.642056,-0.09172 0.359834,-0.02822 0.656168,-0.02822 0.599722,0 1.100667,0.155223 0.500945,0.148166 0.860778,0.458611 0.359834,0.303389 0.55739,0.776112 0.197555,0.465666 0.197555,1.100667 z m -2.659946,1.89089 q 0.973667,0 1.453445,-0.493889 0.479778,-0.500945 0.479778,-1.397001 0,-0.896056 -0.479778,-1.389945 -0.479778,-0.500945 -1.453445,-0.500945 -0.289278,0 -0.451556,0.0071 -0.155222,0.0071 -0.218722,0.01411 v 3.739447 q 0.0635,0.0071 0.218722,0.01411 0.162278,0.0071 0.451556,0.0071 z" />
      <path
         id="path866"
         style="font-size:7.05556px;stroke-width:0.264583;fill:#ffffff"
         d="m 27.13411,68.217499 h 0.68439 v 4.889503 h -0.68439 z" />
      <path
         id="path868"
         style="font-size:7.05556px;stroke-width:0.264583;fill:#ffffff"
         d="m 33.824765,70.701056 h 0.68439 v 2.286002 q -0.08467,0.02822 -0.246945,0.0635 -0.155222,0.03528 -0.366889,0.07055 -0.204611,0.03528 -0.451556,0.05645 -0.246945,0.02822 -0.500945,0.02822 -0.515056,0 -0.938389,-0.169333 -0.423334,-0.169334 -0.726723,-0.49389 -0.303389,-0.324555 -0.472722,-0.797278 -0.162278,-0.472722 -0.162278,-1.086556 0,-0.613834 0.183444,-1.086556 0.1905,-0.479778 0.508001,-0.804334 0.3175,-0.324556 0.740833,-0.493889 0.43039,-0.169334 0.917223,-0.169334 0.331612,0 0.585612,0.04233 0.261055,0.04233 0.4445,0.09878 0.183445,0.05644 0.296334,0.112889 0.119944,0.05644 0.162277,0.08467 l -0.218722,0.5715 q -0.204611,-0.134055 -0.543278,-0.218722 -0.338667,-0.09172 -0.691445,-0.09172 -0.373945,0 -0.684389,0.134055 -0.303389,0.134056 -0.522112,0.388056 -0.211667,0.254 -0.331611,0.620889 -0.119945,0.359834 -0.119945,0.81139 0,0.437445 0.09878,0.797278 0.105834,0.359834 0.310445,0.620889 0.211667,0.254001 0.515056,0.395112 0.310444,0.141111 0.726722,0.141111 0.296334,0 0.500945,-0.02822 0.211667,-0.03528 0.303389,-0.0635 z" />
      <path
         id="path870"
         style="font-size:7.05556px;stroke-width:0.264583;fill:#ffffff"
         d="m 37.385177,68.217499 h 0.684389 v 4.889503 h -0.684389 z" />
      <path
         id="path872"
         style="font-size:7.05556px;stroke-width:0.264583;fill:#ffffff"
         d="m 44.358053,68.217499 v 0.592667 h -1.538112 v 4.296836 h -0.684389 v -4.296836 h -1.538113 v -0.592667 z" />
      <path
         id="path874"
         style="font-size:7.05556px;stroke-width:0.264583;fill:#ffffff"
         d="m 49.69029,73.107002 q -0.119944,-0.3175 -0.225778,-0.620889 -0.105833,-0.310445 -0.218722,-0.627945 h -2.215446 l -0.4445,1.248834 h -0.712612 q 0.282223,-0.776111 0.529167,-1.432278 0.246945,-0.663223 0.479778,-1.25589 0.239889,-0.592667 0.472723,-1.12889 0.232833,-0.543278 0.486833,-1.072445 h 0.627945 q 0.254,0.529167 0.486834,1.072445 0.232833,0.536223 0.465667,1.12889 0.239889,0.592667 0.486834,1.25589 0.246944,0.656167 0.529167,1.432278 z m -0.642056,-1.813279 q -0.225778,-0.613833 -0.451556,-1.185334 -0.218722,-0.578556 -0.458611,-1.107723 -0.246945,0.529167 -0.472723,1.107723 -0.218722,0.571501 -0.437444,1.185334 z" />
      <path
         id="path876"
         style="font-size:7.05556px;stroke-width:0.264583;fill:#ffffff"
         d="m 55.841748,72.514335 v 0.592667 h -2.942169 v -4.889503 h 0.684389 v 4.296836 z" />
      <path
         id="path878"
         style="font-size:7.05556px;stroke-width:0.264583;fill:#ffffff"
         d="m 64.742333,72.514335 v 0.592667 h -2.942169 v -4.889503 h 0.68439 v 4.296836 z" />
      <path
         id="path880"
         style="font-size:7.05556px;stroke-width:0.264583;fill:#ffffff"
         d="m 70.729856,73.107002 q -0.119944,-0.3175 -0.225778,-0.620889 -0.105833,-0.310445 -0.218722,-0.627945 H 68.06991 l -0.4445,1.248834 h -0.712612 q 0.282223,-0.776111 0.529167,-1.432278 0.246945,-0.663223 0.479778,-1.25589 0.239889,-0.592667 0.472723,-1.12889 0.232833,-0.543278 0.486834,-1.072445 h 0.627944 q 0.254001,0.529167 0.486834,1.072445 0.232833,0.536223 0.465667,1.12889 0.239889,0.592667 0.486834,1.25589 0.246944,0.656167 0.529167,1.432278 z M 70.0878,71.293723 q -0.225778,-0.613833 -0.451556,-1.185334 -0.218722,-0.578556 -0.458611,-1.107723 -0.246945,0.529167 -0.472722,1.107723 -0.218723,0.571501 -0.437445,1.185334 z" />
      <path
         id="path882"
         style="font-size:7.05556px;stroke-width:0.264583;fill:#ffffff"
         d="m 75.258535,73.149336 q -0.148167,0 -0.324556,-0.0071 -0.169333,-0.0071 -0.345722,-0.02117 -0.169334,-0.01411 -0.338667,-0.03528 -0.169334,-0.02117 -0.310445,-0.05644 V 68.28801 q 0.141111,-0.03528 0.310445,-0.05644 0.169333,-0.02117 0.338667,-0.03528 0.176389,-0.01411 0.345722,-0.02117 0.169334,-0.0071 0.3175,-0.0071 0.423334,0 0.790223,0.0635 0.373945,0.0635 0.642056,0.218723 0.275167,0.148166 0.430389,0.395111 0.155222,0.246945 0.155222,0.606778 0,0.402167 -0.1905,0.663223 -0.1905,0.254 -0.508,0.381 0.430389,0.127 0.684389,0.402167 0.254001,0.275167 0.254001,0.776112 0,0.733778 -0.543279,1.107722 -0.536222,0.36689 -1.707445,0.36689 z m -0.642056,-2.32128 v 1.721557 q 0.07761,0.0071 0.183444,0.01411 0.09172,0.0071 0.211667,0.01411 0.127,0 0.289278,0 0.303389,0 0.571501,-0.03528 0.275166,-0.04233 0.479778,-0.141111 0.204611,-0.09878 0.324555,-0.275167 0.127001,-0.176389 0.127001,-0.4445 0,-0.239889 -0.09172,-0.402167 -0.09172,-0.169333 -0.268111,-0.268111 -0.169333,-0.09878 -0.409223,-0.141111 -0.239889,-0.04233 -0.536222,-0.04233 z m 0,-0.550333 h 0.719667 q 0.254,0 0.479778,-0.03528 0.225778,-0.03528 0.388056,-0.127 0.169333,-0.09172 0.261056,-0.239889 0.09878,-0.148167 0.09878,-0.373945 0,-0.211667 -0.09878,-0.352778 -0.09878,-0.148167 -0.275167,-0.232833 -0.169334,-0.09172 -0.402167,-0.134056 -0.232834,-0.04233 -0.493889,-0.04233 -0.261056,0 -0.409223,0.0071 -0.148167,0.0071 -0.268111,0.02117 z" />
    </g>
    <rect
       style="font-size:10.5833px;line-height:1.25;font-family:Ubuntu;-inkscape-font-specification:Ubuntu;letter-spacing:0px;word-spacing:0px;opacity:1;fill:none;fill-opacity:1;stroke:#ffffff;stroke-width:1.78821;stroke-miterlimit:4;stroke-dasharray:none;stroke-opacity:1"
       id="rect891"
       width="64.22953"
       height="19.858541"
       x="16.729628"
       y="54.743008" />
  </g>
</svg>
