<?xml version="1.0" encoding="UTF-8" standalone="no"?>
<!-- Creator: CorelDRAW X6 -->

<svg
   xmlns:dc="http://purl.org/dc/elements/1.1/"
   xmlns:cc="http://creativecommons.org/ns#"
   xmlns:rdf="http://www.w3.org/1999/02/22-rdf-syntax-ns#"
   xmlns:svg="http://www.w3.org/2000/svg"
   xmlns="http://www.w3.org/2000/svg"
   xmlns:sodipodi="http://sodipodi.sourceforge.net/DTD/sodipodi-0.dtd"
   xmlns:inkscape="http://www.inkscape.org/namespaces/inkscape"
   xml:space="preserve"
   width="1.8541666in"
   height="0.94866776in"
   version="1.1"
   style="clip-rule:evenodd;fill-rule:evenodd;image-rendering:optimizeQuality;shape-rendering:geometricPrecision;text-rendering:geometricPrecision"
   viewBox="0 0 1854.234 948.73844"
   id="svg3865"
   sodipodi:docname="logo ODNTI small.svg"
   inkscape:version="0.92.2 (5c3e80d, 2017-08-06)"><metadata
     id="metadata3869"><rdf:RDF><cc:Work
         rdf:about=""><dc:format>image/svg+xml</dc:format><dc:type
           rdf:resource="http://purl.org/dc/dcmitype/StillImage" /><dc:title></dc:title></cc:Work></rdf:RDF></metadata><sodipodi:namedview
     pagecolor="#ffffff"
     bordercolor="#666666"
     borderopacity="1"
     objecttolerance="10"
     gridtolerance="10"
     guidetolerance="10"
     inkscape:pageopacity="0"
     inkscape:pageshadow="2"
     inkscape:window-width="1366"
     inkscape:window-height="705"
     id="namedview3867"
     showgrid="false"
     inkscape:zoom="1.897929"
     inkscape:cx="221.43344"
     inkscape:cy="108.91972"
     inkscape:window-x="-8"
     inkscape:window-y="-8"
     inkscape:window-maximized="1"
     inkscape:current-layer="Livello_x0020_1" /><defs
     id="defs3787"><style
       type="text/css"
       id="style3785"><![CDATA[
    .str1 {stroke:#224764;stroke-width:3.47244}
    .str0 {stroke:#224764;stroke-width:13.8898}
    .fil2 {fill:none;fill-rule:nonzero}
    .fil1 {fill:#224764;fill-rule:nonzero}
    .fil0 {fill:#ED3237;fill-rule:nonzero}
   ]]></style></defs><g
     id="Livello_x0020_1"
     transform="translate(-449.35204,-3201.2616)"><metadata
       id="CorelCorpID_0Corel-Layer" /><g
       id="_360312920"
       transform="matrix(0.39473062,0,0,0.39473062,292.7605,2511.868)"><g
         id="g3796"><polygon
           class="fil0"
           points="2432,2918 2432,1955 3001,2494 3001,2287 2494,1787 2276,1787 2276,2918 "
           id="polygon3790"
           style="fill:#ed3237;fill-rule:nonzero" /><g
           id="g3794"><polygon
             class="fil1"
             points="3103,1792 3103,2754 2535,2215 2535,2422 3037,2918 3259,2918 3259,1792 "
             id="polygon3792"
             style="fill:#224764;fill-rule:nonzero" /></g></g><g
         id="g3800"><line
           class="fil2 str0"
           x1="919"
           y1="3173"
           x2="4597"
           y2="3173"
           id="line3798"
           style="fill:none;fill-rule:nonzero;stroke:#224764;stroke-width:13.88980007" /></g></g><g
       id="_360304640"
       transform="matrix(0.39473062,0,0,0.39473062,292.7605,2511.868)"><g
         id="g3861"><path
           class="fil1 str1"
           d="m 672,3762 c -25,25 -58,38 -93,38 -36,0 -69,-14 -93,-38 -34,-34 -35,-68 -35,-152 0,-84 1,-117 35,-152 25,-25 58,-38 93,-38 36,0 69,14 93,38 34,34 35,67 35,152 0,84 -1,117 -35,152 z m -23,-287 v 0 c -19,-19 -44,-29 -71,-29 -27,0 -52,10 -71,29 -27,27 -29,56 -29,136 0,80 2,109 29,136 19,19 44,29 71,29 27,0 52,-10 71,-29 27,-27 29,-56 29,-136 0,-80 -2,-109 -29,-136 z"
           id="path3803"
           inkscape:connector-curvature="0"
           style="fill:#224764;fill-rule:nonzero;stroke:#224764;stroke-width:3.47244" /><path
           class="fil1 str1"
           d="M 964,3626 H 861 v 172 h -28 v -373 h 142 c 61,0 107,35 107,100 0,56 -34,92 -86,101 l 90,173 h -33 l -89,-172 z m 7,-176 v 0 H 861 v 151 h 110 c 48,0 82,-24 82,-76 0,-52 -34,-75 -82,-75 z"
           id="path3805"
           inkscape:connector-curvature="0"
           style="fill:#224764;fill-rule:nonzero;stroke:#224764;stroke-width:3.47244" /><path
           class="fil1 str1"
           d="m 1422,3764 c -23,23 -54,34 -93,34 h -125 v -373 h 125 c 39,0 71,12 93,34 38,38 36,97 36,147 0,50 2,120 -36,158 z m -20,-285 v 0 c -22,-23 -50,-29 -80,-29 h -90 v 323 h 90 c 30,0 59,-6 80,-29 29,-31 28,-96 28,-138 0,-42 2,-96 -28,-127 z"
           id="path3807"
           inkscape:connector-curvature="0"
           style="fill:#224764;fill-rule:nonzero;stroke:#224764;stroke-width:3.47244" /><polygon
           class="fil1 str1"
           points="1614,3424 1614,3798 1585,3798 1585,3424 "
           id="polygon3809"
           style="fill:#224764;fill-rule:nonzero;stroke:#224764;stroke-width:3.47244" /><polygon
           class="fil1 str1"
           points="1999,3798 1784,3473 1784,3798 1755,3798 1755,3424 1784,3424 1999,3748 1999,3424 2027,3424 2027,3798 "
           id="polygon3811"
           style="fill:#224764;fill-rule:nonzero;stroke:#224764;stroke-width:3.47244" /><path
           class="fil1 str1"
           d="m 2856,3764 c -23,23 -54,34 -93,34 h -125 v -373 h 125 c 39,0 71,12 93,34 38,38 36,97 36,147 0,50 2,120 -36,158 z m -20,-285 v 0 c -22,-23 -50,-29 -80,-29 h -90 v 323 h 90 c 30,0 59,-6 80,-29 29,-31 28,-96 28,-138 0,-42 2,-96 -28,-127 z"
           id="path3813"
           inkscape:connector-curvature="0"
           style="fill:#224764;fill-rule:nonzero;stroke:#224764;stroke-width:3.47244" /><polygon
           class="fil1 str1"
           points="3246,3772 3246,3798 3019,3798 3019,3424 3246,3424 3246,3449 3048,3449 3048,3597 3217,3597 3217,3622 3048,3622 3048,3772 "
           id="polygon3815"
           style="fill:#224764;fill-rule:nonzero;stroke:#224764;stroke-width:3.47244" /><polygon
           class="fil1 str1"
           points="2396,3772 2396,3798 2169,3798 2169,3424 2396,3424 2396,3449 2197,3449 2197,3597 2366,3597 2366,3622 2197,3622 2197,3772 "
           id="polygon3817"
           style="fill:#224764;fill-rule:nonzero;stroke:#224764;stroke-width:3.47244" /><polygon
           class="fil1 str1"
           points="3388,3424 3388,3798 3359,3798 3359,3424 "
           id="polygon3819"
           style="fill:#224764;fill-rule:nonzero;stroke:#224764;stroke-width:3.47244" /><polygon
           class="fil1 str1"
           points="3891,3798 3676,3473 3676,3798 3647,3798 3647,3424 3676,3424 3891,3748 3891,3424 3919,3424 3919,3798 "
           id="polygon3821"
           style="fill:#224764;fill-rule:nonzero;stroke:#224764;stroke-width:3.47244" /><path
           class="fil1 str1"
           d="m 4268,3762 c -25,25 -58,38 -93,38 -36,0 -69,-14 -93,-38 -34,-34 -35,-68 -35,-152 0,-84 1,-117 35,-152 25,-25 58,-38 93,-38 36,0 69,14 93,38 34,34 35,67 35,152 0,84 -1,117 -35,152 z m -23,-287 v 0 c -19,-19 -44,-29 -71,-29 -27,0 -52,10 -71,29 -27,27 -29,56 -29,136 0,80 2,109 29,136 19,19 44,29 71,29 27,0 52,-10 71,-29 27,-27 29,-56 29,-136 0,-80 -2,-109 -29,-136 z"
           id="path3823"
           inkscape:connector-curvature="0"
           style="fill:#224764;fill-rule:nonzero;stroke:#224764;stroke-width:3.47244" /><polygon
           class="fil1 str1"
           points="4488,3798 4488,3449 4377,3449 4377,3424 4628,3424 4628,3449 4516,3449 4516,3798 "
           id="polygon3825"
           style="fill:#224764;fill-rule:nonzero;stroke:#224764;stroke-width:3.47244" /><path
           class="fil1 str1"
           d="m 4883,3707 h -174 l -33,91 h -30 l 137,-373 h 25 l 137,373 h -30 l -33,-91 z m -165,-25 v 0 h 156 l -78,-220 z"
           id="path3827"
           inkscape:connector-curvature="0"
           style="fill:#224764;fill-rule:nonzero;stroke:#224764;stroke-width:3.47244" /><polygon
           class="fil1 str1"
           points="5066,3424 5066,3798 5038,3798 5038,3424 "
           id="polygon3829"
           style="fill:#224764;fill-rule:nonzero;stroke:#224764;stroke-width:3.47244" /><path
           class="fil0"
           d="m 1216,3956 c 29,0 51,7 67,22 16,15 23,37 23,68 0,16 -2,30 -5,42 -4,12 -9,23 -16,31 -7,8 -17,15 -28,19 -11,4 -25,7 -41,7 h -65 v -188 h 65 z m 2,167 v 0 c 3,0 6,0 11,-1 4,0 9,-1 13,-3 5,-2 9,-4 14,-7 5,-3 9,-7 13,-13 4,-5 7,-12 9,-20 2,-8 4,-18 4,-30 0,-11 -1,-21 -3,-30 -2,-9 -6,-16 -11,-23 -5,-6 -11,-11 -19,-14 -8,-3 -18,-5 -29,-5 h -42 v 146 h 42 z"
           id="path3831"
           inkscape:connector-curvature="0"
           style="fill:#ed3237;fill-rule:nonzero" /><polygon
           class="fil0"
           points="1521,4145 1390,4145 1390,3956 1520,3956 1520,3978 1415,3978 1415,4037 1513,4037 1513,4059 1415,4059 1415,4124 1521,4124 "
           id="polygon3833"
           style="fill:#ed3237;fill-rule:nonzero" /><polygon
           class="fil0"
           points="1729,4145 1604,4145 1604,3956 1629,3956 1629,4124 1729,4124 "
           id="polygon3835"
           style="fill:#ed3237;fill-rule:nonzero" /><path
           class="fil0"
           d="m 2044,3983 c -10,-7 -21,-10 -34,-10 -11,0 -21,2 -29,6 -8,4 -15,10 -20,17 -5,7 -9,15 -11,24 -2,9 -4,19 -4,29 0,11 1,21 4,30 2,10 6,18 11,25 5,7 12,13 20,17 8,4 18,6 29,6 8,0 16,-1 22,-4 6,-3 12,-6 17,-11 5,-5 8,-11 11,-17 3,-7 4,-14 5,-22 h 25 c -2,24 -11,42 -25,55 -14,13 -33,20 -57,20 -15,0 -27,-3 -38,-8 -11,-5 -20,-12 -27,-21 -7,-9 -13,-19 -16,-31 -4,-12 -5,-25 -5,-39 0,-14 2,-27 6,-39 4,-12 10,-23 17,-32 7,-9 17,-16 28,-21 11,-5 24,-8 38,-8 10,0 19,1 28,4 9,3 17,7 23,12 7,5 13,11 17,19 5,8 8,16 9,27 h -25 c -3,-13 -9,-23 -19,-30 z"
           id="path3837"
           inkscape:connector-curvature="0"
           style="fill:#ed3237;fill-rule:nonzero" /><path
           class="fil0"
           d="m 2252,3956 74,188 h -28 l -21,-57 h -80 l -21,57 h -26 l 73,-188 h 28 z m 17,111 v 0 l -31,-88 h -1 l -32,88 z"
           id="path3839"
           inkscape:connector-curvature="0"
           style="fill:#ed3237;fill-rule:nonzero" /><polygon
           class="fil0"
           points="2421,4145 2397,4145 2397,3956 2423,3956 2523,4109 2523,3956 2547,3956 2547,4145 2519,4145 2421,3994 "
           id="polygon3841"
           style="fill:#ed3237;fill-rule:nonzero" /><polygon
           class="fil0"
           points="2620,3956 2771,3956 2771,3978 2708,3978 2708,4145 2683,4145 2683,3978 2620,3978 "
           id="polygon3843"
           style="fill:#ed3237;fill-rule:nonzero" /><path
           class="fil0"
           d="m 2840,4014 c 4,-12 9,-22 17,-32 8,-9 17,-16 28,-22 11,-5 24,-8 39,-8 15,0 28,3 39,8 11,5 21,13 28,22 8,9 13,20 17,32 4,12 6,24 6,37 0,13 -2,25 -6,37 -4,12 -9,22 -17,32 -8,9 -17,16 -28,22 -11,5 -24,8 -39,8 -15,0 -28,-3 -39,-8 -11,-5 -21,-13 -28,-22 -8,-9 -13,-20 -17,-32 -4,-12 -6,-24 -6,-37 0,-13 2,-25 6,-37 z m 23,65 v 0 c 2,9 6,18 12,25 5,7 12,13 20,18 8,5 18,7 30,7 11,0 21,-2 30,-7 8,-4 15,-10 20,-18 5,-7 9,-16 12,-25 2,-9 4,-19 4,-28 0,-9 -1,-19 -4,-28 -2,-9 -6,-18 -12,-25 -5,-7 -12,-13 -20,-18 -8,-4 -18,-7 -30,-7 -11,0 -21,2 -30,7 -8,4 -15,10 -20,18 -5,7 -9,16 -12,25 -2,9 -4,19 -4,28 0,10 1,19 4,28 z"
           id="path3845"
           inkscape:connector-curvature="0"
           style="fill:#ed3237;fill-rule:nonzero" /><polygon
           class="fil0"
           points="3121,4145 3098,4145 3098,3956 3124,3956 3224,4109 3224,3956 3248,3956 3248,4145 3220,4145 3122,3994 3121,3994 "
           id="polygon3847"
           style="fill:#ed3237;fill-rule:nonzero" /><polygon
           class="fil0"
           points="3447,3956 3598,3956 3598,3978 3535,3978 3535,4145 3510,4145 3510,3978 3447,3978 "
           id="polygon3849"
           style="fill:#ed3237;fill-rule:nonzero" /><polygon
           class="fil0"
           points="3698,4145 3673,4145 3673,3956 3698,3956 "
           id="polygon3851"
           style="fill:#ed3237;fill-rule:nonzero" /><path
           class="fil0"
           d="m 3907,3983 c -10,-7 -21,-10 -34,-10 -11,0 -21,2 -29,6 -8,4 -15,10 -20,17 -5,7 -9,15 -11,24 -2,9 -4,19 -4,29 0,11 1,21 4,30 2,10 6,18 11,25 5,7 12,13 20,17 8,4 18,6 29,6 8,0 16,-1 22,-4 6,-3 12,-6 17,-11 5,-5 8,-11 11,-17 3,-7 4,-14 5,-22 h 25 c -2,24 -11,42 -25,55 -14,13 -33,20 -57,20 -15,0 -27,-3 -38,-8 -11,-5 -20,-12 -27,-21 -7,-9 -13,-19 -16,-31 -4,-12 -5,-25 -5,-39 0,-14 2,-27 6,-39 4,-12 10,-23 17,-32 7,-9 17,-16 28,-21 11,-5 24,-8 38,-8 10,0 19,1 28,4 9,3 17,7 23,12 7,5 13,11 17,19 5,8 8,16 9,27 h -25 c -3,-13 -9,-23 -19,-30 z"
           id="path3853"
           inkscape:connector-curvature="0"
           style="fill:#ed3237;fill-rule:nonzero" /><polygon
           class="fil0"
           points="4062,4145 4037,4145 4037,3956 4062,3956 "
           id="polygon3855"
           style="fill:#ed3237;fill-rule:nonzero" /><polygon
           class="fil0"
           points="4181,4145 4157,4145 4157,3956 4184,3956 4283,4109 4283,3956 4307,3956 4307,4145 4280,4145 4181,3994 "
           id="polygon3857"
           style="fill:#ed3237;fill-rule:nonzero" /><path
           class="fil0"
           d="m 4396,4014 c 4,-12 9,-22 17,-32 8,-9 17,-16 28,-22 11,-5 24,-8 39,-8 15,0 28,3 39,8 11,5 21,13 28,22 8,9 13,20 17,32 4,12 6,24 6,37 0,13 -2,25 -6,37 -4,12 -9,22 -17,32 -8,9 -17,16 -28,22 -11,5 -24,8 -39,8 -15,0 -28,-3 -39,-8 -11,-5 -21,-13 -28,-22 -8,-9 -13,-20 -17,-32 -4,-12 -6,-24 -6,-37 0,-13 2,-25 6,-37 z m 23,65 v 0 c 2,9 6,18 12,25 5,7 12,13 20,18 8,5 18,7 30,7 11,0 21,-2 30,-7 8,-4 15,-10 20,-18 5,-7 9,-16 12,-25 2,-9 4,-19 4,-28 0,-9 -1,-19 -4,-28 -2,-9 -6,-18 -12,-25 -5,-7 -12,-13 -20,-18 -8,-4 -18,-7 -30,-7 -11,0 -21,2 -30,7 -8,4 -15,10 -20,18 -5,7 -9,16 -12,25 -2,9 -4,19 -4,28 0,10 1,19 4,28 z"
           id="path3859"
           inkscape:connector-curvature="0"
           style="fill:#ed3237;fill-rule:nonzero" /></g></g></g></svg>